HIERARCHY
ROOT Hips
{
  OFFSET 0 0 0
  CHANNELS 6 Xposition Yposition Zposition Zrotation Xrotation Yrotation
  JOINT Spine
  {
    OFFSET 0 10.1816 0.131521
    CHANNELS 3 Zrotation Xrotation Yrotation
    JOINT Spine1
    {
      OFFSET 0 10.0835 -1.0008
      CHANNELS 3 Zrotation Xrotation Yrotation
      JOINT Spine2
      {
        OFFSET 0 9.10001 -1.37342
        CHANNELS 3 Zrotation Xrotation Yrotation
        JOINT Neck
        {
          OFFSET 0 16.6717 -2.51617
          CHANNELS 3 Zrotation Xrotation Yrotation
          JOINT Head
          {
            OFFSET 0 9.61788 1.68501
            CHANNELS 3 Zrotation Xrotation Yrotation
            End Site
            {
              OFFSET 0 0 0
            }
          }
        }
        JOINT LeftShoulder
        {
          OFFSET 4.57045 10.946 -2.62799
          CHANNELS 3 Zrotation Xrotation Yrotation
          JOINT LeftArm
          {
            OFFSET 10.5924 -0.524583 -2.23212
            CHANNELS 3 Zrotation Xrotation Yrotation
            JOINT LeftForeArm
            {
              OFFSET 27.8415 -8.94286e-05 3.74589e-05
              CHANNELS 3 Zrotation Xrotation Yrotation
              JOINT LeftHand
              {
                OFFSET 28.3288 -1.74407e-05 3.78045e-05
                CHANNELS 3 Zrotation Xrotation Yrotation
                End Site
                {
                  OFFSET 0 0 0
                }
              }
            }
          }
        }
        JOINT RightShoulder
        {
          OFFSET -4.56997 10.9462 -2.62802
          CHANNELS 3 Zrotation Xrotation Yrotation
          JOINT RightArm
          {
            OFFSET -10.5928 -0.524798 -2.2321
            CHANNELS 3 Zrotation Xrotation Yrotation
            JOINT RightForeArm
            {
              OFFSET -27.8415 -3.30792e-05 1.16763e-05
              CHANNELS 3 Zrotation Xrotation Yrotation
              JOINT RightHand
              {
                OFFSET -28.3288 0 5.5816e-05
                CHANNELS 3 Zrotation Xrotation Yrotation
                End Site
                {
                  OFFSET 0 0 0
                }
              }
            }
          }
        }
      }
    }
  }
  JOINT LeftUpLeg
  {
    OFFSET 8.20778 -6.75171 -1.59956
    CHANNELS 3 Zrotation Xrotation Yrotation
    JOINT LeftLeg
    {
      OFFSET 0 -44.3705 0.284643
      CHANNELS 3 Zrotation Xrotation Yrotation
      JOINT LeftFoot
      {
        OFFSET 0 -44.4279 -2.98219
        CHANNELS 3 Zrotation Xrotation Yrotation
        JOINT LeftToeBase
        {
          OFFSET 0 -8.72867 10.7106
          CHANNELS 3 Zrotation Xrotation Yrotation
          End Site
          {
            OFFSET 0 0 0
          }
        }
      }
    }
  }
  JOINT RightUpLeg
  {
    OFFSET -8.2078 -6.75166 -1.59956
    CHANNELS 3 Zrotation Xrotation Yrotation
    JOINT RightLeg
    {
      OFFSET 0 -44.3705 0.286156
      CHANNELS 3 Zrotation Xrotation Yrotation
      JOINT RightFoot
      {
        OFFSET 0 -44.4277 -2.98379
        CHANNELS 3 Zrotation Xrotation Yrotation
        JOINT RightToeBase
        {
          OFFSET 0 -8.72867 10.7106
          CHANNELS 3 Zrotation Xrotation Yrotation
          End Site
          {
            OFFSET 0 0 0
          }
        }
      }
    }
  }
}
MOTION
Frames:	15
Frame Time:	0.0333333
-0.688783 102.406 2.31159 -1.60666 -3.90903 -2.64006 2.66492 2.10941 -1.2569 0.411048 1.05401 -0.2213 0.409839 1.05364 -0.224521 0.781023 -1.15327 0.27426 -3.96197 1.18594 3.1791 -0.212879 0.579235 -4.886 -83.9998 10.0149 3.75015 -0.000197306 -1.06178e-06 -15.5481 0.572174 0.0413087 -5.74207 1.05529 0.973872 7.62433 79.2426 18.9792 -5.22266 -6.15906e-06 1.57128e-06 21.379 -0.869809 -13.2159 -6.31694 5.04276 -2.36152 11.9287 3.80061 18.6581 -3.8642 -5.31383 -11.9935 -0.380951 -6.54068e-07 6.82203e-08 -4.23734e-07 -0.299042 -3.33163 -1.40347 -3.28935 17.3582 0.464758 4.7987 -9.9879 0.186289 -4.29817e-07 -5.70892 -2.97673e-07 
-0.781624 102.36 2.40694 -1.81685 -3.70949 -3.38113 2.8231 2.3341 -1.59014 0.451396 1.07532 -0.284404 0.449973 1.07497 -0.287513 0.752094 -1.21203 0.398539 -4.21112 2.38567 3.8197 -0.151948 0.572658 -5.15734 -82.7411 10.017 5.35876 -0.000218042 5.44793e-06 -18.9609 2.31843 -0.348182 -4.45492 1.02419 0.969236 7.62214 78.136 20.2747 -3.31904 1.7782e-06 4.5489e-06 21.0305 -1.14371 -12.1883 -5.42999 5.28903 -2.49869 12.055 3.79949 18.9514 -3.29319 -5.48983 -12.2436 -0.411138 -1.52145e-06 -2.26645e-05 -2.54251e-06 -0.0514339 -3.64397 -1.21781 -3.24363 17.5468 0.87696 4.62201 -10.0745 0.185184 1.07369e-06 -5.70452 3.42123e-06 
-0.891583 102.32 2.56862 -1.97544 -3.59981 -4.32295 2.8266 2.57791 -1.72974 0.417258 1.11056 -0.310365 0.415953 1.11027 -0.31334 0.981141 -0.970653 0.407751 -4.8325 4.28838 4.40155 -0.0666849 0.550324 -5.12976 -80.9719 8.35223 7.82835 -0.00018373 -2.3598e-06 -24.9947 5.49872 1.43318 -2.20201 1.00975 1.00299 8.02073 76.8646 21.0645 -2.19441 9.70989e-06 7.87034e-07 22.3242 -2.05702 -11.6348 -5.42939 5.43986 -2.36795 12.1531 3.80239 19.0766 -2.49372 -5.73819 -12.4753 -0.44804 9.40745e-07 -9.56675e-05 2.11884e-06 0.121759 -3.82737 -1.11085 -3.20307 17.7407 1.58532 4.39502 -10.2164 0.174216 -1.25714e-07 -5.75312 -3.28422e-06 
-1.02136 102.279 2.72066 -2.06532 -3.48715 -5.35867 2.73415 2.89225 -1.69536 0.358354 1.19985 -0.302529 0.357247 1.19963 -0.305522 1.16416 -0.671588 0.376059 -5.42137 5.5307 4.70781 0.00975859 0.526931 -5.01073 -79.2121 5.68279 9.8929 -0.000193949 -4.95949e-06 -30.8602 8.33386 4.51945 -0.672218 1.00458 1.04679 8.5325 75.0793 21.5706 -1.43652 -7.4952e-07 -6.50122e-06 25.3154 -3.34237 -11.505 -5.99388 5.42719 -2.18338 12.1006 3.91724 19.1038 -1.44307 -6.10389 -12.6577 -0.497428 -7.57785e-07 -0.00034208 -1.69512e-06 0.2055 -4.07447 -1.07284 -3.12408 18.0289 2.3839 4.11655 -10.3902 0.158601 -1.23958e-06 -5.77413 2.31481e-06 
-1.19419 102.219 2.83111 -2.19882 -3.32838 -6.12372 2.72469 3.30316 -1.62386 0.311614 1.24555 -0.286072 0.310905 1.2452 -0.289225 1.24555 -0.248746 0.340003 -5.82257 5.90845 4.82161 0.0584047 0.516053 -5.00348 -77.5447 3.43848 10.6885 -0.000209433 -2.32886e-06 -34.6727 9.73656 8.25328 -0.943172 0.989667 1.07891 8.95029 72.6105 22.1184 -0.27126 2.50415e-06 -4.31049e-06 28.9878 -4.49573 -11.6121 -5.99076 5.63965 -2.20253 12.2482 3.90451 19.3441 -0.955721 -6.3198 -12.9121 -0.451255 -1.35981e-06 -0.00035894 8.47593e-07 0.370228 -4.3928 -1.01295 -2.99639 18.3891 2.84271 3.83617 -10.5823 0.143162 1.49401e-06 -5.84629 -1.93278e-06 
-1.43085 102.168 2.97361 -2.37489 -3.26603 -6.51911 2.73558 3.88945 -1.53877 0.262476 1.23331 -0.266044 0.262435 1.2328 -0.269263 1.34695 0.334913 0.260093 -6.11543 6.17285 4.80433 0.0798345 0.520295 -5.14259 -75.6386 2.80128 10.1888 -0.000217581 -3.11275e-06 -36.2569 9.60185 12.2058 -2.82358 0.94842 1.09691 9.26133 69.6591 22.8161 1.83113 5.71643e-06 6.93537e-07 31.8695 -4.93893 -11.7123 -4.38081 5.92178 -2.1245 12.3794 4.03157 19.5125 -0.925978 -6.59208 -13.1435 -0.339435 -1.35811e-06 -0.000558081 4.23805e-07 0.64665 -4.44777 -0.945226 -2.85781 18.6208 3.02779 3.54205 -10.7963 0.125331 -4.74706e-07 -5.88228 6.41926e-07 
-1.7133 102.09 3.11863 -2.47461 -3.07389 -6.57435 2.71266 4.36137 -1.52577 0.253523 1.24483 -0.261387 0.253827 1.24422 -0.264634 1.20568 0.921244 0.207234 -6.26383 6.49015 4.55828 0.0844852 0.535482 -5.37499 -73.3922 3.47412 8.77028 -0.0001904 -6.72826e-06 -36.2704 8.62615 15.5129 -5.36605 0.872772 1.1161 9.64497 66.8004 23.2924 4.55612 8.70204e-06 1.23398e-06 33.2388 -4.46654 -11.6694 -1.49314 6.14233 -2.29883 12.3668 4.30565 19.7594 -1.02074 -6.95817 -13.373 -0.311008 -5.7588e-07 -0.000800412 -3.02153e-14 0.895874 -4.68911 -0.870379 -2.71081 19.0186 2.86134 3.28811 -11.1147 0.123077 -6.56643e-07 -5.82137 2.05942e-06 
-2.01208 101.95 3.23123 -2.5048 -2.59307 -6.40208 2.74357 4.59672 -1.48334 0.247443 1.25303 -0.251368 0.247878 1.25233 -0.254801 0.970389 1.4921 0.181063 -6.42962 7.05229 4.32017 0.103344 0.56492 -5.91395 -71.1739 4.1094 6.698 -0.000196596 5.72962e-06 -35.2828 8.36889 16.4594 -7.78165 0.752782 1.15872 10.4187 64.5849 23.103 7.17315 -1.15075e-05 -2.43122e-07 33.4274 -3.62235 -11.2056 1.32338 6.45121 -3.0233 12.3905 4.54234 20.3672 -1.1859 -7.32398 -13.7027 -0.48208 -3.93659e-06 -9.57192e-05 4.23802e-07 1.11741 -5.43447 -0.751133 -2.58201 19.778 2.49027 3.09592 -11.5844 0.13917 -4.69334e-07 -5.78102 -7.21302e-07 
-2.355 101.759 3.33734 -2.74108 -2.09331 -6.01005 3.05483 5.02078 -1.37931 0.21572 1.25345 -0.223005 0.216592 1.25253 -0.227398 0.859679 2.01677 0.0824504 -6.66832 7.86854 3.94708 0.181212 0.623337 -7.25073 -69.0331 4.35225 4.22786 -0.000199235 -3.32623e-06 -34.633 10.5426 13.6883 -9.2179 0.578308 1.24096 11.8803 62.6154 22.5943 9.66119 -1.79278e-06 1.28714e-05 33.5174 -3.4025 -9.5812 3.70415 7.01858 -4.01027 12.459 4.98494 21.3654 -1.64044 -7.80858 -14.1929 -0.694157 2.12189e-06 -5.80761e-05 -1.69506e-06 1.63659 -6.20147 -0.475279 -2.47106 20.6237 1.87567 2.9166 -12.118 0.155951 2.71549e-07 -5.79763 3.75204e-06 
-2.75214 101.494 3.36377 -3.33644 -1.70575 -5.70302 3.67028 6.03123 -1.38868 0.196865 1.31749 -0.20551 0.198329 1.31614 -0.212001 0.847826 2.4157 -0.0219268 -6.97895 8.01234 3.65437 0.33343 0.720888 -9.64327 -66.1967 5.0364 2.3108 -0.000204627 6.93752e-07 -37.778 16.6994 8.57443 -8.54323 0.372066 1.3582 13.9941 59.2503 22.7712 12.5058 -1.44946e-05 -7.27198e-06 35.9757 -5.46712 -6.00429 6.40086 7.95463 -5.21373 12.5585 5.64235 22.9559 -2.32141 -8.38719 -14.939 -0.708002 -7.50673e-07 -0.433804 -8.60275e-07 2.67957 -6.96275 0.206045 -2.52694 21.6126 0.963429 2.85926 -12.6457 0.177515 -1.18479e-06 -5.77533 -1.92758e-06 
-3.21864 101.141 3.16321 -3.90088 -1.48527 -5.85002 4.06714 7.9498 -1.68876 0.178247 1.43119 -0.238845 0.180178 1.42925 -0.24743 1.07256 2.8534 -0.0539148 -7.59973 6.77811 4.06613 0.524414 0.836798 -12.5929 -61.8064 6.18377 2.08002 -0.000222882 8.21288e-06 -47.0429 26.7932 5.27036 -6.47273 0.176164 1.47316 16.2063 53.0566 23.8894 15.8271 3.72572e-06 8.54224e-06 43.1472 -11.7134 -0.812342 9.97094 8.8773 -6.64323 12.495 6.18865 25.2603 -2.21316 -8.52664 -15.8792 -0.815782 -1.4863e-06 -2.61864 -4.26999e-06 3.85258 -8.06379 1.07633 -2.74276 23.2324 0.0974255 2.81895 -13.2738 0.187297 -3.56838e-07 -5.54613 5.62083e-07 
-3.78774 100.722 2.7282 -4.06134 -1.69932 -6.55436 3.79637 11.0776 -2.1159 0.101089 1.74159 -0.298252 0.10361 1.73944 -0.308548 1.51294 2.83507 -0.035948 -8.65614 4.48051 4.96953 0.70148 0.928975 -15.1583 -56.2119 6.211 3.21801 -0.000221724 8.84306e-06 -59.5369 36.9587 6.84076 -5.80718 0.0125228 1.54128 17.814 44.5339 24.6917 19.6062 -3.58893e-06 -2.87349e-06 53.8115 -21.9026 4.44126 14.2991 9.56948 -8.95238 12.3055 6.66129 29.7066 -1.30774 -8.12203 -15.4435 -0.775413 1.72309e-06 -4.26446 -2.93756e-06 4.41398 -9.47097 1.20343 -2.15886 25.7164 -1.64263 2.25306 -14.0175 0.143585 -1.50362e-07 -5.20882 -1.69935e-06 
-4.37438 100.344 2.25586 -4.12016 -1.73702 -7.62949 3.37439 14.1413 -2.35841 -0.0294262 2.13351 -0.325845 -0.0263385 2.13193 -0.338687 1.92302 2.61442 0.0316356 -10.1744 2.20311 6.05675 0.828615 0.968725 -16.6255 -50.662 3.69788 4.08672 -0.000183938 -3.69486e-06 -69.8597 43.6083 12.4693 -8.40722 -0.11569 1.54949 18.5305 35.8223 23.4417 23.9904 -6.64549e-06 -1.15207e-05 63.7133 -32.7767 8.19479 18.5004 10.3943 -11.5095 12.2954 6.62348 34.0362 0.282724 -7.68444 -13.928 -0.64822 -0.86244 -4.28216 -0.0569394 4.75267 -11.1579 0.706721 -0.554046 27.8589 -5.02325 1.09219 -14.3887 0.13587 1.51011e-06 -5.2508 2.91265e-06 
-4.93098 100.147 1.95877 -4.29231 -0.891899 -8.67148 3.43113 15.8307 -2.32231 -0.072165 2.31687 -0.302888 -0.0689598 2.31596 -0.317688 1.77285 2.90038 0.166335 -11.3827 1.36985 6.80857 0.914029 0.954826 -16.8595 -45.7012 -1.01473 3.1271 -0.000190878 -1.25979e-05 -75.4949 47.2838 18.6123 -13.0468 -0.213462 1.52553 18.7136 28.6993 19.4937 28.8001 2.66047e-05 1.32009e-05 69.9342 -40.8226 10.0984 21.1868 11.3708 -14.2734 12.5699 6.29224 36.7059 1.85709 -7.55052 -12.1777 -0.539093 -3.1474 -4.95078 -0.0526881 5.30775 -12.8669 0.34695 1.31898 28.4329 -7.16831 -0.658279 -14.2059 -1.7244 1.20019e-06 -5.61751 -3.29189e-06 
-5.4411 100.009 1.90623 -4.26922 0.348365 -9.54112 3.47609 16.7036 -2.06194 -0.0845633 2.43176 -0.245108 -0.081957 2.4314 -0.261351 1.54221 3.39933 0.252495 -12.0291 0.315549 7.08626 0.991268 0.908764 -16.2928 -40.9256 -6.22932 0.0154553 -0.000214576 -4.03156e-06 -77.2834 49.2976 22.5638 -16.7906 -0.294149 1.5067 18.9524 23.3104 13.7663 33.5976 2.19151e-06 -2.0806e-06 72.3431 -45.4588 10.7858 22.0049 12.1266 -16.968 12.9013 5.7553 38.0924 3.25434 -8.05651 -10.6338 -0.390162 -2.71004 -6.27486 -0.00259321 5.69729 -14.3665 0.45005 2.22929 28.6364 -7.45311 -1.71329 -14.1896 -3.05569 -5.85414e-07 -6.0573 -7.0626e-06 
